<svg width="1436" height="719" viewBox="0 0 1436 719" fill="none" xmlns="http://www.w3.org/2000/svg">
<path fill-rule="evenodd" clip-rule="evenodd" d="M0 184.441L317.481 0.164551L634.962 184.441H0Z" fill="#E7E7E7"/>
<path fill-rule="evenodd" clip-rule="evenodd" d="M208.543 63.3979L0 184.437H461.96C437.193 153.047 401.413 125.776 357.438 104.772C313.463 83.7681 262.493 69.6052 208.543 63.3979Z" fill="#FAFAFA"/>
<path fill-rule="evenodd" clip-rule="evenodd" d="M0 184.43H634.962V258.14H0V184.43Z" fill="#E7E7E7"/>
<path fill-rule="evenodd" clip-rule="evenodd" d="M0 184.43V258.14H497.305C492.148 232.457 480.195 207.528 461.96 184.43H0Z" fill="#FAFAFA"/>
<path fill-rule="evenodd" clip-rule="evenodd" d="M16.7131 258.164H150.389L116.97 313.447V552.788L150.389 608.289H16.7131L50.1322 552.748V313.447L16.7131 258.164Z" fill="#FCCA3D"/>
<path fill-rule="evenodd" clip-rule="evenodd" d="M484.581 258.164H618.257L584.838 313.447V552.788L618.257 608.289H484.581L518 552.748V313.447L484.581 258.164Z" fill="#FCCA3D"/>
<path fill-rule="evenodd" clip-rule="evenodd" d="M250.637 258.164H384.313L350.894 313.447V552.788L384.313 608.289H250.637L284.056 552.748V313.447L250.637 258.164Z" fill="#FCCA3D"/>
<path d="M317.485 127.711C326.075 127.711 333.038 120.101 333.038 110.713C333.038 101.325 326.075 93.7148 317.485 93.7148C308.896 93.7148 301.933 101.325 301.933 110.713C301.933 120.101 308.896 127.711 317.485 127.711Z" fill="#FF5576"/>
<path d="M374.021 127.711C382.61 127.711 389.573 120.101 389.573 110.713C389.573 101.325 382.61 93.7148 374.021 93.7148C365.431 93.7148 358.468 101.325 358.468 110.713C358.468 120.101 365.431 127.711 374.021 127.711Z" fill="#FF5576"/>
<path d="M260.368 127.711C268.958 127.711 275.921 120.101 275.921 110.713C275.921 101.325 268.958 93.7148 260.368 93.7148C251.779 93.7148 244.816 101.325 244.816 110.713C244.816 120.101 251.779 127.711 260.368 127.711Z" fill="#FF5576"/>
<path fill-rule="evenodd" clip-rule="evenodd" d="M0 608.269H634.962V718.835H0V608.269Z" fill="#E7E7E7"/>
<path fill-rule="evenodd" clip-rule="evenodd" d="M0 608.269V666.683H513.035C527.741 666.485 541.896 660.485 552.937 649.769C563.977 639.053 571.171 624.33 573.216 608.269H0Z" fill="#FAFAFA"/>
<path d="M728.25 433V323.5H754.95V433H728.25ZM803.415 433V345.55H770.265V323.5H862.815V345.55H829.665V433H803.415ZM858.98 400.45V378.55H909.38V400.45H858.98ZM958.778 434.5C950.978 434.5 943.428 433.7 936.128 432.1C928.928 430.4 922.878 428.15 917.978 425.35L923.678 403.3C927.078 405.1 930.928 406.75 935.228 408.25C939.528 409.75 943.878 410.95 948.278 411.85C952.678 412.65 956.728 413.05 960.428 413.05C965.928 413.05 970.128 412.1 973.028 410.2C976.028 408.3 977.528 405.6 977.528 402.1C977.528 400.3 977.078 398.75 976.178 397.45C975.278 396.05 973.828 394.8 971.828 393.7C969.928 392.6 967.328 391.5 964.028 390.4C960.828 389.3 956.928 388.1 952.328 386.8C946.728 385.3 941.778 383.55 937.478 381.55C933.278 379.45 929.728 377.05 926.828 374.35C923.928 371.65 921.728 368.55 920.228 365.05C918.828 361.55 918.128 357.65 918.128 353.35C918.128 343.25 921.978 335.5 929.678 330.1C937.478 324.7 948.578 322 962.978 322C970.078 322 977.078 322.65 983.978 323.95C990.978 325.15 996.978 326.85 1001.98 329.05L996.428 351.1C991.328 348.7 985.828 346.85 979.928 345.55C974.028 344.15 968.278 343.45 962.678 343.45C956.678 343.45 952.178 344.3 949.178 346C946.278 347.6 944.828 350.05 944.828 353.35C944.828 355.15 945.228 356.75 946.028 358.15C946.828 359.55 948.128 360.85 949.928 362.05C951.828 363.15 954.278 364.25 957.278 365.35C960.278 366.45 963.978 367.6 968.378 368.8C974.478 370.6 979.728 372.55 984.128 374.65C988.628 376.65 992.328 378.95 995.228 381.55C998.228 384.15 1000.48 387.15 1001.98 390.55C1003.48 393.95 1004.23 397.8 1004.23 402.1C1004.23 412.5 1000.28 420.5 992.378 426.1C984.478 431.7 973.278 434.5 958.778 434.5ZM1058.29 434.5C1048.89 434.5 1040.84 432.95 1034.14 429.85C1027.54 426.65 1022.49 422.05 1018.99 416.05C1015.49 409.95 1013.74 402.6 1013.74 394C1013.74 385.4 1015.49 378.1 1018.99 372.1C1022.49 366 1027.54 361.4 1034.14 358.3C1040.84 355.1 1048.89 353.5 1058.29 353.5C1063.19 353.5 1067.69 353.95 1071.79 354.85C1075.89 355.75 1079.89 357.25 1083.79 359.35L1079.74 377.65C1076.24 375.75 1072.89 374.35 1069.69 373.45C1066.59 372.45 1063.39 371.95 1060.09 371.95C1053.39 371.95 1048.24 373.85 1044.64 377.65C1041.04 381.45 1039.24 386.9 1039.24 394C1039.24 401.1 1041.04 406.55 1044.64 410.35C1048.24 414.15 1053.39 416.05 1060.09 416.05C1063.39 416.05 1066.59 415.6 1069.69 414.7C1072.89 413.7 1076.24 412.25 1079.74 410.35L1083.79 428.65C1079.89 430.65 1075.89 432.1 1071.79 433C1067.69 434 1063.19 434.5 1058.29 434.5ZM1100.42 433V323.5H1125.32V364.15H1125.62C1129.02 360.35 1132.62 357.65 1136.42 356.05C1140.32 354.35 1144.87 353.5 1150.07 353.5C1159.37 353.5 1166.17 356.05 1170.47 361.15C1174.77 366.15 1176.92 374.1 1176.92 385V433H1151.87V389.95C1151.87 384.35 1150.97 380.3 1149.17 377.8C1147.37 375.3 1144.47 374.05 1140.47 374.05C1137.57 374.05 1134.97 374.65 1132.67 375.85C1130.37 376.95 1128.57 378.55 1127.27 380.65C1126.07 382.65 1125.42 384.95 1125.32 387.55V433H1100.42ZM1229.89 434.5C1216.69 434.5 1206.54 431.05 1199.44 424.15C1192.44 417.15 1188.94 407.1 1188.94 394C1188.94 380.9 1192.44 370.9 1199.44 364C1206.54 357 1216.69 353.5 1229.89 353.5C1243.19 353.5 1253.34 357 1260.34 364C1267.44 370.9 1270.99 380.9 1270.99 394C1270.99 407.1 1267.44 417.15 1260.34 424.15C1253.34 431.05 1243.19 434.5 1229.89 434.5ZM1229.89 416.05C1235.29 416.05 1239.29 414.25 1241.89 410.65C1244.59 406.95 1245.94 401.4 1245.94 394C1245.94 386.5 1244.59 380.95 1241.89 377.35C1239.29 373.75 1235.29 371.95 1229.89 371.95C1224.59 371.95 1220.59 373.75 1217.89 377.35C1215.29 380.95 1213.99 386.5 1213.99 394C1213.99 401.4 1215.29 406.95 1217.89 410.65C1220.59 414.25 1224.59 416.05 1229.89 416.05ZM1322.02 434.5C1308.82 434.5 1298.67 431.05 1291.57 424.15C1284.57 417.15 1281.07 407.1 1281.07 394C1281.07 380.9 1284.57 370.9 1291.57 364C1298.67 357 1308.82 353.5 1322.02 353.5C1335.32 353.5 1345.47 357 1352.47 364C1359.57 370.9 1363.12 380.9 1363.12 394C1363.12 407.1 1359.57 417.15 1352.47 424.15C1345.47 431.05 1335.32 434.5 1322.02 434.5ZM1322.02 416.05C1327.42 416.05 1331.42 414.25 1334.02 410.65C1336.72 406.95 1338.07 401.4 1338.07 394C1338.07 386.5 1336.72 380.95 1334.02 377.35C1331.42 373.75 1327.42 371.95 1322.02 371.95C1316.72 371.95 1312.72 373.75 1310.02 377.35C1307.42 380.95 1306.12 386.5 1306.12 394C1306.12 401.4 1307.42 406.95 1310.02 410.65C1312.72 414.25 1316.72 416.05 1322.02 416.05ZM1378.03 433V323.5H1403.53V433H1378.03ZM727.2 583V473.5H764.55C779.45 473.5 790.7 475.75 798.3 480.25C805.9 484.75 809.7 491.45 809.7 500.35C809.7 506.95 807.8 512.4 804 516.7C800.2 521 794.85 523.75 787.95 524.95V525.25C796.25 526.35 802.55 529.15 806.85 533.65C811.15 538.15 813.3 544.2 813.3 551.8C813.3 562.1 809.25 569.9 801.15 575.2C793.15 580.4 781.35 583 765.75 583H727.2ZM765.75 562.6C773.15 562.6 778.55 561.55 781.95 559.45C785.45 557.25 787.2 553.9 787.2 549.4C787.2 544.8 785.45 541.45 781.95 539.35C778.55 537.25 773.15 536.2 765.75 536.2H739.95V516.55H765.75C772.45 516.55 777.2 515.65 780 513.85C782.8 512.05 784.2 509.15 784.2 505.15C784.2 501.05 782.8 498.15 780 496.45C777.2 494.75 772.45 493.9 765.75 493.9H752.7V562.6H765.75ZM846.274 584.5C838.774 584.5 832.824 582.35 828.424 578.05C824.024 573.75 821.824 567.95 821.824 560.65C821.824 551.85 825.274 545.05 832.174 540.25C839.174 535.45 849.024 533.05 861.724 533.05H870.874C870.874 530.05 870.524 527.75 869.824 526.15C869.224 524.55 868.074 523.45 866.374 522.85C864.674 522.25 862.274 521.95 859.174 521.95C854.274 521.95 848.974 522.45 843.274 523.45C837.674 524.45 832.474 525.85 827.674 527.65L824.974 509.2C830.174 507.4 836.074 506 842.674 505C849.374 504 856.024 503.5 862.624 503.5C870.824 503.5 877.324 504.5 882.124 506.5C886.924 508.4 890.374 511.55 892.474 515.95C894.674 520.35 895.774 526.25 895.774 533.65V583H872.074L871.774 574H871.474C868.674 577.2 864.974 579.75 860.374 581.65C855.874 583.55 851.174 584.5 846.274 584.5ZM855.724 566.65C858.624 566.65 861.224 566.15 863.524 565.15C865.824 564.15 867.624 562.8 868.924 561.1C870.224 559.3 870.874 557.3 870.874 555.1V547.75H865.474C858.474 547.75 853.274 548.6 849.874 550.3C846.474 551.9 844.774 554.5 844.774 558.1C844.774 560.8 845.724 562.9 847.624 564.4C849.524 565.9 852.224 566.65 855.724 566.65ZM912.628 583V505H936.328L936.628 514.15H936.928C940.228 510.45 943.928 507.75 948.028 506.05C952.128 504.35 956.878 503.5 962.278 503.5C971.478 503.5 978.228 506.05 982.528 511.15C986.928 516.15 989.128 524.1 989.128 535V583H964.078V539.95C964.078 534.35 963.178 530.3 961.378 527.8C959.578 525.3 956.678 524.05 952.678 524.05C949.778 524.05 947.178 524.65 944.878 525.85C942.578 526.95 940.778 528.5 939.478 530.5C938.178 532.5 937.528 534.85 937.528 537.55V583H912.628ZM1005.79 583V473.5H1030.84V535.15H1031.14L1055.74 505H1085.14L1051.99 542.5L1086.19 583H1056.79L1031.14 549.7H1030.84V583H1005.79ZM1098.68 494.95V473.5H1124.18V494.95H1098.68ZM1098.68 583V506.95H1124.18V583H1098.68ZM1143.49 583V505H1167.19L1167.49 514.15H1167.79C1171.09 510.45 1174.79 507.75 1178.89 506.05C1182.99 504.35 1187.74 503.5 1193.14 503.5C1202.34 503.5 1209.09 506.05 1213.39 511.15C1217.79 516.15 1219.99 524.1 1219.99 535V583H1194.94V539.95C1194.94 534.35 1194.04 530.3 1192.24 527.8C1190.44 525.3 1187.54 524.05 1183.54 524.05C1180.64 524.05 1178.04 524.65 1175.74 525.85C1173.44 526.95 1171.64 528.5 1170.34 530.5C1169.04 532.5 1168.39 534.85 1168.39 537.55V583H1143.49ZM1269.5 616C1263 616 1256.8 615.4 1250.9 614.2C1245 613 1240.2 611.35 1236.5 609.25L1239.2 590.95C1242.9 592.85 1247.3 594.4 1252.4 595.6C1257.5 596.9 1262.4 597.55 1267.1 597.55C1274.6 597.55 1279.95 595.7 1283.15 592C1286.35 588.3 1287.95 582.05 1287.95 573.25V569.95H1287.65C1284.25 573.45 1280.65 576 1276.85 577.6C1273.15 579.2 1268.85 580 1263.95 580C1253.75 580 1245.85 576.7 1240.25 570.1C1234.75 563.5 1232 554.05 1232 541.75C1232 529.45 1234.75 520 1240.25 513.4C1245.85 506.8 1253.75 503.5 1263.95 503.5C1268.85 503.5 1273.35 504.35 1277.45 506.05C1281.55 507.65 1285.3 510.15 1288.7 513.55H1289L1289.3 505H1313V573.25C1313 587.65 1309.4 598.35 1302.2 605.35C1295 612.45 1284.1 616 1269.5 616ZM1272.35 560.5C1275.45 560.5 1278.15 559.95 1280.45 558.85C1282.75 557.75 1284.55 556.25 1285.85 554.35C1287.25 552.35 1287.95 550.15 1287.95 547.75V535.75C1287.95 533.25 1287.25 531.05 1285.85 529.15C1284.55 527.25 1282.75 525.75 1280.45 524.65C1278.15 523.55 1275.45 523 1272.35 523C1267.35 523 1263.45 524.65 1260.65 527.95C1257.95 531.15 1256.6 535.75 1256.6 541.75C1256.6 547.75 1257.95 552.4 1260.65 555.7C1263.45 558.9 1267.35 560.5 1272.35 560.5Z" fill="white"/>
</svg>
