<svg width="1943" height="681" viewBox="0 0 1943 681" fill="none" xmlns="http://www.w3.org/2000/svg">
<path fill-rule="evenodd" clip-rule="evenodd" d="M0 166.667L316.667 0L633.333 166.667H0Z" fill="#E7E7E7"/>
<path fill-rule="evenodd" clip-rule="evenodd" d="M208.008 57.1943L0 166.667H460.775C436.071 138.276 400.383 113.611 356.521 94.6145C312.658 75.6179 261.82 62.8084 208.008 57.1943Z" fill="#FAFAFA"/>
<path fill-rule="evenodd" clip-rule="evenodd" d="M0 166.667H633.333V233.334H0V166.667Z" fill="#E7E7E7"/>
<path fill-rule="evenodd" clip-rule="evenodd" d="M0 166.667V233.334H496.029C490.886 210.105 478.963 187.558 460.775 166.667H0Z" fill="#FAFAFA"/>
<path fill-rule="evenodd" clip-rule="evenodd" d="M16.6665 233.333H150L116.667 283.333V499.803L150 550H16.6665L49.9998 499.767V283.333L16.6665 233.333Z" fill="#FCCA3D"/>
<path fill-rule="evenodd" clip-rule="evenodd" d="M483.334 233.333H616.668L583.334 283.333V499.803L616.668 550H483.334L516.668 499.767V283.333L483.334 233.333Z" fill="#FCCA3D"/>
<path fill-rule="evenodd" clip-rule="evenodd" d="M249.999 233.333H383.332L349.999 283.333V499.803L383.332 550H249.999L283.332 499.767V283.333L249.999 233.333Z" fill="#FCCA3D"/>
<path d="M316.666 115.374C325.234 115.374 332.179 108.491 332.179 100C332.179 91.5096 325.234 84.6265 316.666 84.6265C308.099 84.6265 301.154 91.5096 301.154 100C301.154 108.491 308.099 115.374 316.666 115.374Z" fill="#FF5576"/>
<path d="M373.063 115.374C381.631 115.374 388.576 108.491 388.576 100C388.576 91.5096 381.631 84.6265 373.063 84.6265C364.496 84.6265 357.551 91.5096 357.551 100C357.551 108.491 364.496 115.374 373.063 115.374Z" fill="#FF5576"/>
<path d="M259.703 115.374C268.27 115.374 275.216 108.491 275.216 100C275.216 91.5096 268.27 84.6265 259.703 84.6265C251.136 84.6265 244.19 91.5096 244.19 100C244.19 108.491 251.136 115.374 259.703 115.374Z" fill="#FF5576"/>
<path fill-rule="evenodd" clip-rule="evenodd" d="M0 550H633.333V650H0V550Z" fill="#E7E7E7"/>
<path fill-rule="evenodd" clip-rule="evenodd" d="M0 550V602.832H511.719C526.387 602.653 540.506 597.227 551.518 587.535C562.529 577.843 569.705 564.527 571.745 550H0Z" fill="#FAFAFA"/>
<path d="M733.75 376V193.5H778.25V376H733.75ZM859.025 376V230.25H803.775V193.5H958.025V230.25H902.775V376H859.025ZM951.633 321.75V285.25H1035.63V321.75H951.633ZM1117.96 378.5C1104.96 378.5 1092.38 377.167 1080.21 374.5C1068.21 371.667 1058.13 367.917 1049.96 363.25L1059.46 326.5C1065.13 329.5 1071.55 332.25 1078.71 334.75C1085.88 337.25 1093.13 339.25 1100.46 340.75C1107.8 342.083 1114.55 342.75 1120.71 342.75C1129.88 342.75 1136.88 341.167 1141.71 338C1146.71 334.833 1149.21 330.333 1149.21 324.5C1149.21 321.5 1148.46 318.917 1146.96 316.75C1145.46 314.417 1143.05 312.333 1139.71 310.5C1136.55 308.667 1132.21 306.833 1126.71 305C1121.38 303.167 1114.88 301.167 1107.21 299C1097.88 296.5 1089.63 293.583 1082.46 290.25C1075.46 286.75 1069.55 282.75 1064.71 278.25C1059.88 273.75 1056.21 268.583 1053.71 262.75C1051.38 256.917 1050.21 250.417 1050.21 243.25C1050.21 226.417 1056.63 213.5 1069.46 204.5C1082.46 195.5 1100.96 191 1124.96 191C1136.8 191 1148.46 192.083 1159.96 194.25C1171.63 196.25 1181.63 199.083 1189.96 202.75L1180.71 239.5C1172.21 235.5 1163.05 232.417 1153.21 230.25C1143.38 227.917 1133.8 226.75 1124.46 226.75C1114.46 226.75 1106.96 228.167 1101.96 231C1097.13 233.667 1094.71 237.75 1094.71 243.25C1094.71 246.25 1095.38 248.917 1096.71 251.25C1098.05 253.583 1100.21 255.75 1103.21 257.75C1106.38 259.583 1110.46 261.417 1115.46 263.25C1120.46 265.083 1126.63 267 1133.96 269C1144.13 272 1152.88 275.25 1160.21 278.75C1167.71 282.083 1173.88 285.917 1178.71 290.25C1183.71 294.583 1187.46 299.583 1189.96 305.25C1192.46 310.917 1193.71 317.333 1193.71 324.5C1193.71 341.833 1187.13 355.167 1173.96 364.5C1160.8 373.833 1142.13 378.5 1117.96 378.5ZM1283.82 378.5C1268.15 378.5 1254.73 375.917 1243.57 370.75C1232.57 365.417 1224.15 357.75 1218.32 347.75C1212.48 337.583 1209.57 325.333 1209.57 311C1209.57 296.667 1212.48 284.5 1218.32 274.5C1224.15 264.333 1232.57 256.667 1243.57 251.5C1254.73 246.167 1268.15 243.5 1283.82 243.5C1291.98 243.5 1299.48 244.25 1306.32 245.75C1313.15 247.25 1319.82 249.75 1326.32 253.25L1319.57 283.75C1313.73 280.583 1308.15 278.25 1302.82 276.75C1297.65 275.083 1292.32 274.25 1286.82 274.25C1275.65 274.25 1267.07 277.417 1261.07 283.75C1255.07 290.083 1252.07 299.167 1252.07 311C1252.07 322.833 1255.07 331.917 1261.07 338.25C1267.07 344.583 1275.65 347.75 1286.82 347.75C1292.32 347.75 1297.65 347 1302.82 345.5C1308.15 343.833 1313.73 341.417 1319.57 338.25L1326.32 368.75C1319.82 372.083 1313.15 374.5 1306.32 376C1299.48 377.667 1291.98 378.5 1283.82 378.5ZM1354.04 376V193.5H1395.54V261.25H1396.04C1401.7 254.917 1407.7 250.417 1414.04 247.75C1420.54 244.917 1428.12 243.5 1436.79 243.5C1452.29 243.5 1463.62 247.75 1470.79 256.25C1477.95 264.583 1481.54 277.833 1481.54 296V376H1439.79V304.25C1439.79 294.917 1438.29 288.167 1435.29 284C1432.29 279.833 1427.45 277.75 1420.79 277.75C1415.95 277.75 1411.62 278.75 1407.79 280.75C1403.95 282.583 1400.95 285.25 1398.79 288.75C1396.79 292.083 1395.7 295.917 1395.54 300.25V376H1354.04ZM1569.81 378.5C1547.81 378.5 1530.89 372.75 1519.06 361.25C1507.39 349.583 1501.56 332.833 1501.56 311C1501.56 289.167 1507.39 272.5 1519.06 261C1530.89 249.333 1547.81 243.5 1569.81 243.5C1591.98 243.5 1608.89 249.333 1620.56 261C1632.39 272.5 1638.31 289.167 1638.31 311C1638.31 332.833 1632.39 349.583 1620.56 361.25C1608.89 372.75 1591.98 378.5 1569.81 378.5ZM1569.81 347.75C1578.81 347.75 1585.48 344.75 1589.81 338.75C1594.31 332.583 1596.56 323.333 1596.56 311C1596.56 298.5 1594.31 289.25 1589.81 283.25C1585.48 277.25 1578.81 274.25 1569.81 274.25C1560.98 274.25 1554.31 277.25 1549.81 283.25C1545.48 289.25 1543.31 298.5 1543.31 311C1543.31 323.333 1545.48 332.583 1549.81 338.75C1554.31 344.75 1560.98 347.75 1569.81 347.75ZM1723.37 378.5C1701.37 378.5 1684.46 372.75 1672.62 361.25C1660.96 349.583 1655.12 332.833 1655.12 311C1655.12 289.167 1660.96 272.5 1672.62 261C1684.46 249.333 1701.37 243.5 1723.37 243.5C1745.54 243.5 1762.46 249.333 1774.12 261C1785.96 272.5 1791.87 289.167 1791.87 311C1791.87 332.833 1785.96 349.583 1774.12 361.25C1762.46 372.75 1745.54 378.5 1723.37 378.5ZM1723.37 347.75C1732.37 347.75 1739.04 344.75 1743.37 338.75C1747.87 332.583 1750.12 323.333 1750.12 311C1750.12 298.5 1747.87 289.25 1743.37 283.25C1739.04 277.25 1732.37 274.25 1723.37 274.25C1714.54 274.25 1707.87 277.25 1703.37 283.25C1699.04 289.25 1696.87 298.5 1696.87 311C1696.87 323.333 1699.04 332.583 1703.37 338.75C1707.87 344.75 1714.54 347.75 1723.37 347.75ZM1816.72 376V193.5H1859.22V376H1816.72ZM732 626V443.5H794.25C819.083 443.5 837.833 447.25 850.5 454.75C863.167 462.25 869.5 473.417 869.5 488.25C869.5 499.25 866.333 508.333 860 515.5C853.667 522.667 844.75 527.25 833.25 529.25V529.75C847.083 531.583 857.583 536.25 864.75 543.75C871.917 551.25 875.5 561.333 875.5 574C875.5 591.167 868.75 604.167 855.25 613C841.917 621.667 822.25 626 796.25 626H732ZM796.25 592C808.583 592 817.583 590.25 823.25 586.75C829.083 583.083 832 577.5 832 570C832 562.333 829.083 556.75 823.25 553.25C817.583 549.75 808.583 548 796.25 548H753.25V515.25H796.25C807.417 515.25 815.333 513.75 820 510.75C824.667 507.75 827 502.917 827 496.25C827 489.417 824.667 484.583 820 481.75C815.333 478.917 807.417 477.5 796.25 477.5H774.5V592H796.25ZM930.457 628.5C917.957 628.5 908.04 624.917 900.707 617.75C893.374 610.583 889.707 600.917 889.707 588.75C889.707 574.083 895.457 562.75 906.957 554.75C918.624 546.75 935.04 542.75 956.207 542.75H971.457C971.457 537.75 970.874 533.917 969.707 531.25C968.707 528.583 966.79 526.75 963.957 525.75C961.124 524.75 957.124 524.25 951.957 524.25C943.79 524.25 934.957 525.083 925.457 526.75C916.124 528.417 907.457 530.75 899.457 533.75L894.957 503C903.624 500 913.457 497.667 924.457 496C935.624 494.333 946.707 493.5 957.707 493.5C971.374 493.5 982.207 495.167 990.207 498.5C998.207 501.667 1003.96 506.917 1007.46 514.25C1011.12 521.583 1012.96 531.417 1012.96 543.75V626H973.457L972.957 611H972.457C967.79 616.333 961.624 620.583 953.957 623.75C946.457 626.917 938.624 628.5 930.457 628.5ZM946.207 598.75C951.04 598.75 955.374 597.917 959.207 596.25C963.04 594.583 966.04 592.333 968.207 589.5C970.374 586.5 971.457 583.167 971.457 579.5V567.25H962.457C950.79 567.25 942.124 568.667 936.457 571.5C930.79 574.167 927.957 578.5 927.957 584.5C927.957 589 929.54 592.5 932.707 595C935.874 597.5 940.374 598.75 946.207 598.75ZM1041.05 626V496H1080.55L1081.05 511.25H1081.55C1087.05 505.083 1093.21 500.583 1100.05 497.75C1106.88 494.917 1114.8 493.5 1123.8 493.5C1139.13 493.5 1150.38 497.75 1157.55 506.25C1164.88 514.583 1168.55 527.833 1168.55 546V626H1126.8V554.25C1126.8 544.917 1125.3 538.167 1122.3 534C1119.3 529.833 1114.46 527.75 1107.8 527.75C1102.96 527.75 1098.63 528.75 1094.8 530.75C1090.96 532.583 1087.96 535.167 1085.8 538.5C1083.63 541.833 1082.55 545.75 1082.55 550.25V626H1041.05ZM1196.32 626V443.5H1238.07V546.25H1238.57L1279.57 496H1328.57L1273.32 558.5L1330.32 626H1281.32L1238.57 570.5H1238.07V626H1196.32ZM1351.14 479.25V443.5H1393.64V479.25H1351.14ZM1351.14 626V499.25H1393.64V626H1351.14ZM1425.81 626V496H1465.31L1465.81 511.25H1466.31C1471.81 505.083 1477.98 500.583 1484.81 497.75C1491.65 494.917 1499.56 493.5 1508.56 493.5C1523.9 493.5 1535.15 497.75 1542.31 506.25C1549.65 514.583 1553.31 527.833 1553.31 546V626H1511.56V554.25C1511.56 544.917 1510.06 538.167 1507.06 534C1504.06 529.833 1499.23 527.75 1492.56 527.75C1487.73 527.75 1483.4 528.75 1479.56 530.75C1475.73 532.583 1472.73 535.167 1470.56 538.5C1468.4 541.833 1467.31 545.75 1467.31 550.25V626H1425.81ZM1635.84 681C1625 681 1614.67 680 1604.84 678C1595 676 1587 673.25 1580.84 669.75L1585.34 639.25C1591.5 642.417 1598.84 645 1607.34 647C1615.84 649.167 1624 650.25 1631.84 650.25C1644.34 650.25 1653.25 647.167 1658.59 641C1663.92 634.833 1666.59 624.417 1666.59 609.75V604.25H1666.09C1660.42 610.083 1654.42 614.333 1648.09 617C1641.92 619.667 1634.75 621 1626.59 621C1609.59 621 1596.42 615.5 1587.09 604.5C1577.92 593.5 1573.34 577.75 1573.34 557.25C1573.34 536.75 1577.92 521 1587.09 510C1596.42 499 1609.59 493.5 1626.59 493.5C1634.75 493.5 1642.25 494.917 1649.09 497.75C1655.92 500.417 1662.17 504.583 1667.84 510.25H1668.34L1668.84 496H1708.34V609.75C1708.34 633.75 1702.34 651.583 1690.34 663.25C1678.34 675.083 1660.17 681 1635.84 681ZM1640.59 588.5C1645.75 588.5 1650.25 587.583 1654.09 585.75C1657.92 583.917 1660.92 581.417 1663.09 578.25C1665.42 574.917 1666.59 571.25 1666.59 567.25V547.25C1666.59 543.083 1665.42 539.417 1663.09 536.25C1660.92 533.083 1657.92 530.583 1654.09 528.75C1650.25 526.917 1645.75 526 1640.59 526C1632.25 526 1625.75 528.75 1621.09 534.25C1616.59 539.583 1614.34 547.25 1614.34 557.25C1614.34 567.25 1616.59 575 1621.09 580.5C1625.75 585.833 1632.25 588.5 1640.59 588.5Z" fill="white"/>
</svg>
